<?xml version="1.0" encoding="UTF-8" standalone="no"?>
<!-- Uploaded to: SVG Repo, www.svgrepo.com, Generator: SVG Repo Mixer Tools -->

<svg
   width="30"
   height="30"
   viewBox="-56.24 0 22.8273 22.8273"
   version="1.1"
   id="svg1"
   sodipodi:docname="apple-icon.svg"
   inkscape:version="1.4 (e7c3feb1, 2024-10-09)"
   xmlns:inkscape="http://www.inkscape.org/namespaces/inkscape"
   xmlns:sodipodi="http://sodipodi.sourceforge.net/DTD/sodipodi-0.dtd"
   xmlns="http://www.w3.org/2000/svg"
   xmlns:svg="http://www.w3.org/2000/svg">
  <defs
     id="defs1" />
  <sodipodi:namedview
     id="namedview1"
     pagecolor="#505050"
     bordercolor="#eeeeee"
     borderopacity="1"
     inkscape:showpageshadow="0"
     inkscape:pageopacity="0"
     inkscape:pagecheckerboard="0"
     inkscape:deskcolor="#505050"
     inkscape:zoom="4.5870296"
     inkscape:cx="-2.398066"
     inkscape:cy="14.933411"
     inkscape:window-width="1200"
     inkscape:window-height="562"
     inkscape:window-x="0"
     inkscape:window-y="38"
     inkscape:window-maximized="0"
     inkscape:current-layer="svg1" />
  <path
     d="m -43.869646,2.0490475 c 1.489895,-1.96373186 3.561207,-1.97330587 3.561207,-1.97330587 0,0 0.308104,1.84624067 -1.172031,3.62475997 -1.580418,1.899063 -3.376782,1.5883138 -3.376782,1.5883138 0,0 -0.337307,-1.4935465 0.987606,-3.2397679 z m -0.798108,4.5330538 c 0.766479,0 2.189027,-1.0536121 4.04067,-1.0536121 3.187283,0 4.441155,2.2679611 4.441155,2.2679611 0,0 -2.452354,1.2538372 -2.452354,4.2962137 0,3.432059 3.054967,4.614857 3.054967,4.614857 0,0 -2.135534,6.010733 -5.02004,6.010733 -1.324838,0 -2.354831,-0.892797 -3.750743,-0.892797 -1.422546,0 -2.834215,0.926101 -3.753648,0.926101 -2.633992,7.3e-5 -5.961636,-5.701735 -5.961636,-10.285043 0,-4.5093246 2.816633,-6.8748474 5.458522,-6.8748474 1.717464,0 3.050236,0.9904337 3.943107,0.9904337 z"
     fill="#999999"
     id="path1"
     style="stroke-width:0.0372513" />
</svg>
