<?xml version="1.0" encoding="UTF-8" standalone="no"?>
<svg
   viewBox="0 0 30 30"
   version="1.1"
   id="svg5"
   sodipodi:docname="google-play-icon.svg"
   width="30"
   height="30"
   inkscape:version="1.4 (e7c3feb1, 2024-10-09)"
   xmlns:inkscape="http://www.inkscape.org/namespaces/inkscape"
   xmlns:sodipodi="http://sodipodi.sourceforge.net/DTD/sodipodi-0.dtd"
   xmlns="http://www.w3.org/2000/svg"
   xmlns:svg="http://www.w3.org/2000/svg">
  <defs
     id="defs5" />
  <sodipodi:namedview
     id="namedview5"
     pagecolor="#505050"
     bordercolor="#eeeeee"
     borderopacity="1"
     inkscape:showpageshadow="0"
     inkscape:pageopacity="0"
     inkscape:pagecheckerboard="0"
     inkscape:deskcolor="#505050"
     inkscape:zoom="6.7449888"
     inkscape:cx="8.4507183"
     inkscape:cy="1.1860657"
     inkscape:window-width="1208"
     inkscape:window-height="623"
     inkscape:window-x="0"
     inkscape:window-y="38"
     inkscape:window-maximized="0"
     inkscape:current-layer="svg5" />
  <g
     data-name="Capa 2"
     id="g5"
     transform="matrix(0.9350995,0,0,0.9350995,1.4422376,0.04706596)">
    <g
       data-name="Capa 1"
       id="g4">
      <path
         d="M 13.54,15.28 0.12,29.34 a 3.66,3.66 0 0 0 5.33,2.16 l 15.1,-8.6 z"
         style="fill:#ea4335"
         id="path1" />
      <path
         d="m 27.11,12.89 -6.53,-3.74 -7.35,6.45 7.38,7.28 6.48,-3.7 a 3.54,3.54 0 0 0 1.5,-4.79 3.62,3.62 0 0 0 -1.5,-1.5 z"
         style="fill:#fbbc04"
         id="path2" />
      <path
         d="M 0.12,2.66 A 3.57,3.57 0 0 0 0,3.58 v 24.84 a 3.57,3.57 0 0 0 0.12,0.92 L 14,15.64 Z"
         style="fill:#4285f4"
         id="path3" />
      <path
         d="M 13.64,16 20.58,9.15 5.5,0.51 A 3.73,3.73 0 0 0 3.63,0 3.64,3.64 0 0 0 0.12,2.65 Z"
         style="fill:#34a853"
         id="path4" />
    </g>
  </g>
</svg>
